<?xml version="1.0" encoding="utf-8"?>
<!-- Generator: Adobe Illustrator 20.1.0, SVG Export Plug-In . SVG Version: 6.00 Build 0)  -->
<svg version="1.1" id="Layer_1" xmlns="http://www.w3.org/2000/svg" xmlns:xlink="http://www.w3.org/1999/xlink" x="0px" y="0px"
	 viewBox="0 0 76 32.5" style="enable-background:new 0 0 76 32.5;" xml:space="preserve">
<style type="text/css">
	.st0{fill:#FFC907;}
	.st1{enable-background:new    ;}
	.st2{fill:#1F2532;}
</style>
<title>factr-logo</title>
<g id="_Group_">
	<path id="_Path_" class="st0" d="M9.3,4.5c-0.3-1.6,0.4-3.2,1.8-4c1.2-0.8,2.8-0.7,3.9,0.2c1.2,0.8,1.8,2.2,1.6,3.6
		c-0.3,1.9-1.9,3.3-3.7,3.3c-4.4,0.2-5.4,1.1-5.4,5.4c0,2.1-1.6,3.8-3.7,3.8c-0.1,0-0.2,0-0.3,0c-2-0.1-3.6-1.8-3.6-3.9
		s1.8-3.6,3.9-3.6c0.1,0,0.2,0,0.2,0C7.6,9.4,9.5,7.6,9.3,4.5z"/>
	<path id="_Path_2" class="st0" d="M3.7,0c2.1,0,3.8,1.7,3.8,3.8c-0.1,2-1.7,3.6-3.7,3.7c-2,0-3.7-1.6-3.8-3.6C0,1.8,1.6,0.1,3.7,0
		C3.7,0,3.7,0,3.7,0z"/>
	<path id="_Path_3" class="st0" d="M22.3,0c2,0,3.7,1.7,3.7,3.7c0,2.1-1.7,3.8-3.8,3.8c-2.1,0-3.8-1.8-3.7-3.9
		C18.6,1.6,20.2,0,22.3,0z"/>
	<path id="_Path_4" class="st0" d="M3.7,26C1.6,26,0,24.2,0,22.1c0.1-2,1.7-3.6,3.8-3.7c2.1,0.1,3.7,1.8,3.7,3.9
		C7.4,24.4,5.8,26,3.7,26z"/>
	<path id="_Path_5" class="st0" d="M16.7,13c0,2-1.5,3.7-3.5,3.7c-0.1,0-0.2,0-0.3,0c-2,0-3.7-1.6-3.8-3.6c0-2,1.6-3.7,3.6-3.8
		c0.1,0,0.2,0,0.4,0C15.1,9.3,16.7,10.9,16.7,13C16.7,13,16.7,13,16.7,13z"/>
</g>
<g class="st1">
	<path class="st2" d="M30.2,26.6V13h9.2v3.1h-5.6v2.7h3.9v2.9h-3.9v5H30.2z"/>
</g>
<g class="st1">
	<path class="st2" d="M41.9,26.8c-0.3,0-0.7-0.1-1-0.2s-0.6-0.3-0.9-0.5c-0.3-0.2-0.5-0.5-0.6-0.9c-0.2-0.4-0.2-0.8-0.2-1.3
		c0-1.1,0.5-2,1.5-2.6c1-0.6,2.5-1,4.5-1.1v-0.1c0-0.1,0-0.2,0-0.3c0-0.1-0.1-0.2-0.2-0.3s-0.2-0.1-0.3-0.2c-0.1,0-0.3-0.1-0.5-0.1
		c-0.6,0-1.1,0.1-1.6,0.3c-0.5,0.2-1,0.5-1.4,0.8l-1.5-2.1c0.2-0.2,0.5-0.4,0.8-0.6c0.3-0.2,0.7-0.4,1.1-0.5
		c0.4-0.2,0.9-0.3,1.4-0.4s1.1-0.2,1.8-0.2c0.7,0,1.3,0.1,1.8,0.3c0.5,0.2,0.9,0.4,1.2,0.8c0.3,0.3,0.6,0.8,0.7,1.3
		c0.1,0.5,0.2,1.1,0.2,1.8v3.5c0,0.6,0,1.1,0.1,1.5s0.1,0.7,0.2,0.9h-3.5c-0.1-0.2-0.1-0.4-0.2-0.7c0-0.2-0.1-0.5-0.1-0.8
		c-0.4,0.5-0.9,0.9-1.4,1.2C43.2,26.6,42.6,26.8,41.9,26.8z M43.4,24.1c0.4,0,0.8-0.1,1.1-0.2c0.3-0.1,0.5-0.2,0.6-0.4v-1.4
		c-0.9,0-1.5,0.2-1.9,0.4c-0.4,0.2-0.6,0.5-0.6,0.9c0,0.2,0.1,0.4,0.2,0.5S43.2,24.1,43.4,24.1z"/>
</g>
<g class="st1">
	<path class="st2" d="M54.8,26.8c-0.4,0-0.8,0-1.2-0.1c-0.4-0.1-0.8-0.2-1.1-0.3c-0.4-0.1-0.7-0.4-1-0.6c-0.3-0.3-0.6-0.6-0.8-1
		c-0.2-0.4-0.4-0.8-0.6-1.3s-0.2-1.1-0.2-1.8c0-0.7,0.1-1.3,0.2-1.8s0.4-1,0.6-1.4c0.3-0.4,0.6-0.7,0.9-0.9c0.3-0.3,0.7-0.5,1.1-0.6
		c0.4-0.1,0.8-0.3,1.1-0.3s0.8-0.1,1.1-0.1c0.7,0,1.3,0.1,1.8,0.3c0.5,0.2,0.9,0.4,1.3,0.7c0.3,0.3,0.6,0.6,0.8,1
		c0.2,0.4,0.4,0.8,0.5,1.2l-3,1c-0.1-0.3-0.2-0.5-0.3-0.7s-0.2-0.3-0.3-0.4c-0.1-0.1-0.3-0.2-0.4-0.2s-0.3-0.1-0.5-0.1
		c-0.3,0-0.5,0.1-0.7,0.2s-0.3,0.3-0.5,0.5c-0.1,0.2-0.2,0.5-0.3,0.8c-0.1,0.3-0.1,0.7-0.1,1.1c0,0.4,0,0.7,0.1,1
		c0,0.3,0.1,0.6,0.2,0.8c0.1,0.2,0.3,0.4,0.4,0.6s0.4,0.2,0.7,0.2c0.1,0,0.3,0,0.4-0.1c0.2,0,0.3-0.1,0.4-0.2
		c0.1-0.1,0.3-0.3,0.4-0.5c0.1-0.2,0.2-0.5,0.3-0.8l3,1c-0.1,0.4-0.3,0.7-0.6,1.1c-0.2,0.4-0.5,0.7-0.9,1c-0.4,0.3-0.8,0.5-1.3,0.7
		C56.1,26.7,55.5,26.8,54.8,26.8z"/>
</g>
<g class="st1">
	<path class="st2" d="M65.1,26.8c-0.5,0-1,0-1.4-0.1s-0.7-0.2-1-0.3c-0.3-0.1-0.5-0.3-0.6-0.5c-0.2-0.2-0.3-0.4-0.4-0.6
		c-0.1-0.2-0.1-0.5-0.2-0.8s0-0.6,0-0.9v-4.3H60v-2.6h1.6v-3.3h3.6v3.3h2.5v2.6h-2.5v3.5c0,0.3,0,0.5,0.1,0.6c0,0.2,0.1,0.3,0.2,0.4
		c0.1,0.1,0.2,0.2,0.4,0.2s0.4,0.1,0.6,0.1c0.1,0,0.2,0,0.3,0c0.1,0,0.2,0,0.3,0c0.1,0,0.2,0,0.2,0c0.1,0,0.1,0,0.2,0v2.6
		c0,0-0.2,0-0.3,0c-0.2,0-0.4,0-0.6,0.1c-0.2,0-0.5,0-0.7,0C65.5,26.7,65.3,26.8,65.1,26.8z"/>
</g>
<g class="st1">
	<path class="st2" d="M68.9,26.6v-9.9h3.6v1.5h0c0.1-0.2,0.2-0.4,0.4-0.6s0.4-0.4,0.6-0.6c0.2-0.2,0.5-0.3,0.9-0.4s0.7-0.2,1.2-0.2
		h0v3.2c0,0-0.1,0-0.2,0s-0.2,0-0.2,0c-0.1,0-0.2,0-0.3,0s-0.2,0-0.2,0c-0.3,0-0.5,0-0.7,0.1c-0.2,0.1-0.4,0.1-0.6,0.2
		c-0.2,0.1-0.3,0.2-0.5,0.3c-0.1,0.1-0.3,0.2-0.4,0.3v6H68.9z"/>
</g>
</svg>
