<svg id="Layer_1" data-name="Layer 1" xmlns="http://www.w3.org/2000/svg" viewBox="0 0 76 32.464"><defs><style>.cls-1{fill:#ffc907;}.cls-2{font-size:18.415px;fill:#1f2532;font-family:BentonSans-Black, Benton Sans;}.cls-3{letter-spacing:-0.051em;}.cls-4{letter-spacing:-0.003em;}.cls-5{letter-spacing:0.01em;}.cls-6{letter-spacing:0.003em;}</style></defs><title>factr-logo</title><g id="_Group_" data-name="&lt;Group&gt;"><path id="_Path_" data-name="&lt;Path&gt;" class="cls-1" d="M9.336,4.519A3.658,3.658,0,0,1,11.156.53a3.482,3.482,0,0,1,3.926.16,3.569,3.569,0,0,1,1.6,3.586,3.768,3.768,0,0,1-3.737,3.259C8.53,7.72,7.583,8.657,7.515,12.91a3.733,3.733,0,0,1-3.93,3.806,3.713,3.713,0,1,1,.51-7.405C7.6,9.384,9.523,7.626,9.336,4.519Z" transform="translate(0 0)"/><path id="_Path_2" data-name="&lt;Path&gt;" class="cls-1" d="M3.721.025a3.826,3.826,0,0,1,3.8,3.807A3.876,3.876,0,0,1,3.785,7.537,3.838,3.838,0,0,1,0,3.895,3.794,3.794,0,0,1,3.721.025Z" transform="translate(0 0)"/><path id="_Path_3" data-name="&lt;Path&gt;" class="cls-1" d="M22.255.023A3.817,3.817,0,0,1,26,3.7a3.857,3.857,0,0,1-3.778,3.836,3.815,3.815,0,0,1-3.729-3.87A3.791,3.791,0,0,1,22.255.023Z" transform="translate(0 0)"/><path id="_Path_4" data-name="&lt;Path&gt;" class="cls-1" d="M3.733,26A3.8,3.8,0,0,1,0,22.141a3.839,3.839,0,0,1,3.771-3.655,3.867,3.867,0,0,1,3.742,3.875A3.823,3.823,0,0,1,3.733,26Z" transform="translate(0 0)"/><path id="_Path_5" data-name="&lt;Path&gt;" class="cls-1" d="M16.7,13.018a3.619,3.619,0,0,1-3.8,3.688,3.7,3.7,0,1,1,.193-7.389A3.613,3.613,0,0,1,16.7,13.018Z" transform="translate(0 0)"/></g><g id="_Group_2" data-name="&lt;Group&gt;"><text class="cls-2" transform="translate(29 26.628) scale(0.98 1)"><tspan class="cls-3">F</tspan><tspan class="cls-4" x="10.027" y="0">a</tspan><tspan class="cls-5" x="20.808" y="0">c</tspan><tspan class="cls-6" x="31.375" y="0">t</tspan><tspan x="39.764" y="0">r</tspan></text></g></svg>